<?xml version="1.0" standalone="no"?>
<!DOCTYPE svg PUBLIC "-//W3C//DTD SVG 20010904//EN"
 "http://www.w3.org/TR/2001/REC-SVG-20010904/DTD/svg10.dtd">
<svg version="1.0" xmlns="http://www.w3.org/2000/svg"
 width="84.000000pt" height="43.000000pt" viewBox="0 0 84.000000 43.000000"
 preserveAspectRatio="xMidYMid meet">

<g transform="translate(0.000000,43.000000) scale(0.100000,-0.100000)"
fill="#000000" stroke="none">
<path d="M198 294 c14 -7 17 -104 2 -104 -5 0 -10 20 -10 44 0 36 -4 46 -21
51 -11 4 -23 4 -26 1 -4 -3 -1 -6 5 -6 8 0 12 -29 12 -94 0 -102 7 -137 21
-114 5 7 9 34 9 61 0 70 19 57 22 -15 5 -111 23 -65 23 60 l0 117 -25 2 c-14
1 -19 0 -12 -3z"/>
<path d="M468 289 c7 -8 12 -39 12 -75 0 -71 -3 -74 -87 -74 -31 0 -53 -3 -50
-7 4 -3 34 -5 67 -4 l60 2 0 -40 c0 -23 4 -41 9 -41 11 0 20 40 22 95 4 163 6
150 -21 153 -20 3 -23 1 -12 -9z"/>
<path d="M728 289 c7 -8 12 -40 12 -78 0 -60 13 -76 22 -26 2 11 14 22 28 25
17 4 21 8 12 14 -6 4 -16 5 -21 1 -6 -3 -11 12 -13 32 -2 32 -7 39 -28 41 -20
3 -23 1 -12 -9z"/>
<path d="M365 270 c8 -13 -21 -68 -53 -98 l-27 -25 25 13 c35 18 69 50 86 82
12 23 12 27 -2 32 -23 9 -36 7 -29 -4z"/>
<path d="M78 258 c8 -8 17 -8 34 0 22 10 21 11 -11 11 -27 1 -32 -2 -23 -11z"/>
<path d="M574 255 c10 -8 16 -27 16 -55 l0 -43 41 7 c23 4 53 14 68 22 14 8
18 13 9 10 -9 -3 -33 -8 -53 -12 l-37 -7 4 41 c3 39 3 40 -30 44 -28 4 -31 2
-18 -7z"/>
<path d="M653 263 c9 -2 23 -2 30 0 6 3 -1 5 -18 5 -16 0 -22 -2 -12 -5z"/>
<path d="M75 230 c-31 -6 -34 -16 -2 -11 15 2 6 -35 -18 -77 -20 -35 -21 -41
-6 -32 10 5 26 21 36 36 l17 27 14 -31 c7 -18 18 -32 24 -32 18 0 11 26 -14
49 -28 26 -24 61 6 61 10 0 16 5 13 10 -7 11 -10 11 -70 0z"/>
<path d="M410 185 c27 -29 40 -32 40 -10 0 9 -12 20 -26 25 -38 15 -40 13 -14
-15z"/>
<path d="M652 134 c-12 -8 -22 -24 -22 -34 0 -22 36 -50 65 -50 29 0 65 28 65
49 0 44 -65 65 -108 35z m66 -6 c17 -17 15 -43 -4 -59 -31 -26 -70 25 -44 56
15 18 32 19 48 3z"/>
</g>
</svg>
