<?xml version="1.0" standalone="no"?>
<!DOCTYPE svg PUBLIC "-//W3C//DTD SVG 20010904//EN"
 "http://www.w3.org/TR/2001/REC-SVG-20010904/DTD/svg10.dtd">
<svg version="1.0" xmlns="http://www.w3.org/2000/svg"
 width="472.000000pt" height="299.000000pt" viewBox="0 0 472.000000 299.000000"
 preserveAspectRatio="xMidYMid meet">

<g transform="translate(0.000000,299.000000) scale(0.100000,-0.100000)"
fill="#000000" stroke="none">
<path d="M1241 2132 c-11 -8 -3 -16 35 -35 27 -14 60 -37 74 -52 25 -26 25
-28 28 -241 l3 -214 -55 0 -56 0 -2 217 -3 218 -27 13 c-48 23 -168 44 -197
34 -25 -8 -25 -9 20 -35 84 -49 77 -8 81 -517 4 -458 7 -501 41 -522 21 -13
46 13 63 65 12 39 18 106 21 265 l5 213 52 -3 51 -3 5 -285 c4 -255 7 -289 23
-314 12 -17 24 -25 34 -22 8 3 16 6 19 6 9 0 35 65 49 122 11 50 14 165 16
553 l2 490 -69 23 c-77 26 -191 38 -213 24z"/>
<path d="M2502 2134 c-8 -4 10 -20 45 -40 98 -58 93 -41 94 -328 1 -275 9
-339 45 -344 26 -4 59 34 75 87 6 20 15 149 19 286 5 138 10 259 11 269 3 16
-9 24 -71 44 -73 23 -192 38 -218 26z"/>
<path d="M3746 2131 c-3 -5 18 -23 48 -40 86 -48 86 -49 86 -254 0 -98 -4
-176 -8 -173 -4 2 -59 -11 -122 -30 -139 -41 -284 -71 -365 -76 l-60 -3 -3
171 -2 171 61 7 c34 3 110 6 170 6 84 0 111 3 123 16 39 38 8 65 -83 72 -52 3
-74 1 -93 -12 -13 -9 -62 -21 -108 -27 -82 -11 -284 -7 -327 6 -46 15 -23 -22
36 -56 l59 -34 4 -180 c5 -226 12 -245 98 -245 112 0 316 62 519 156 52 24 95
44 96 44 1 0 5 -37 8 -83 9 -116 22 -149 56 -145 37 4 69 73 79 168 l7 75 101
5 c125 6 156 26 120 75 -8 12 -32 21 -67 25 -46 6 -60 4 -95 -16 -22 -13 -44
-24 -48 -24 -4 0 -6 79 -5 175 1 96 0 178 -3 181 -3 3 -46 16 -94 30 -90 24
-178 31 -188 15z"/>
<path d="M2048 2043 c-26 -7 -22 -19 11 -33 16 -6 39 -22 52 -36 21 -22 21
-27 9 -66 -42 -144 -168 -319 -307 -430 -36 -28 -61 -54 -55 -56 15 -5 125 42
193 83 76 47 165 129 225 208 49 64 124 214 124 246 0 20 -23 32 -124 67 -68
23 -92 27 -128 17z"/>
<path d="M662 1984 c2 -10 25 -34 52 -51 43 -30 56 -33 121 -33 87 0 135 14
135 41 0 27 -25 36 -130 43 -52 4 -115 10 -139 13 -38 5 -43 4 -39 -13z"/>
<path d="M893 1809 c-40 -25 -208 -37 -297 -20 -33 6 -62 9 -64 6 -10 -10 26
-40 81 -66 55 -25 61 -26 92 -13 19 8 39 14 45 14 25 0 -32 -194 -92 -314 -49
-99 -67 -125 -143 -205 -66 -70 -56 -75 43 -19 103 58 209 174 272 298 l22 44
19 -35 c10 -20 27 -73 39 -120 25 -97 50 -143 90 -164 41 -21 57 -19 76 10 22
33 12 85 -28 147 -32 52 -127 144 -166 161 -18 8 -22 16 -17 31 4 12 17 56 28
99 l22 77 67 0 c47 0 71 5 82 16 20 19 20 25 2 49 -21 29 -130 31 -173 4z"/>
<path d="M2180 1706 c0 -2 18 -15 39 -29 22 -15 67 -62 100 -106 71 -93 93
-111 138 -111 57 0 78 42 49 98 -21 40 -55 68 -116 96 -77 35 -210 68 -210 52z"/>
<path d="M2563 1399 c-19 -20 -37 -22 -252 -30 -151 -6 -252 -6 -293 1 -105
17 -94 -12 31 -75 l54 -27 40 23 c35 19 61 23 206 30 91 4 183 8 203 8 l36 1
4 -183 c2 -155 6 -187 21 -210 22 -34 32 -34 67 1 40 40 52 89 57 232 4 85 10
131 20 146 20 32 13 67 -17 80 -14 6 -54 14 -90 18 -58 5 -68 4 -87 -15z"/>
<path d="M3575 1396 c-135 -43 -207 -122 -206 -228 0 -106 84 -186 233 -224
193 -50 409 68 409 223 1 82 -32 137 -112 188 -80 51 -231 70 -324 41z m202
-65 c117 -85 105 -260 -22 -321 -153 -74 -299 122 -201 270 56 85 148 106 223
51z"/>
<path d="M1093 642 c10 -10 17 -31 17 -45 0 -24 -4 -27 -35 -27 -37 0 -43 8
-23 28 8 8 8 15 3 21 -13 11 -136 1 -129 -11 3 -5 23 -6 45 -3 30 5 39 4 39
-8 0 -20 -38 -66 -74 -89 -27 -17 -28 -19 -6 -13 34 10 87 43 93 58 3 8 19 11
46 9 40 -4 41 -5 41 -41 1 -34 2 -35 15 -17 10 13 15 43 15 82 0 56 -2 62 -22
68 -37 10 -42 7 -25 -12z"/>
<path d="M1393 649 c13 -8 17 -24 17 -72 0 -34 4 -69 10 -77 9 -15 9 -16 25
35 2 8 13 15 24 15 11 0 23 5 27 11 5 8 -1 10 -20 7 -25 -5 -26 -3 -26 37 0
43 -13 55 -60 55 -12 -1 -11 -3 3 -11z"/>
<path d="M1713 642 c13 -14 17 -38 17 -100 0 -45 4 -82 9 -82 10 0 21 34 21
68 0 17 6 22 25 22 14 0 25 5 25 11 0 7 -10 9 -25 7 -23 -5 -25 -3 -25 37 0
36 -4 44 -22 49 -37 10 -42 7 -25 -12z"/>
<path d="M2113 649 c23 -14 25 -119 2 -119 -12 0 -15 13 -15 55 0 50 -2 55
-22 55 -17 0 -19 -3 -10 -12 8 -8 12 -51 12 -127 0 -72 4 -111 9 -106 6 6 11
34 13 64 2 32 8 56 16 59 9 3 12 -14 12 -60 0 -65 14 -108 24 -78 3 8 7 72 8
142 3 120 2 127 -17 132 -11 3 -27 6 -35 6 -12 -1 -11 -3 3 -11z"/>
<path d="M2427 648 c6 -7 13 -45 16 -85 l6 -72 -34 -7 c-18 -3 -56 -7 -83 -7
-28 -1 -48 -5 -45 -10 2 -4 35 -4 74 -1 l69 7 0 -46 c0 -25 5 -49 10 -52 14
-9 31 40 30 89 0 23 2 73 6 112 6 69 5 71 -17 77 -35 10 -43 8 -32 -5z"/>
<path d="M2824 647 c13 -10 17 -24 14 -62 -3 -46 -5 -50 -30 -53 -32 -4 -33
-3 -14 43 11 25 11 35 3 38 -22 8 -137 -5 -131 -15 3 -5 26 -6 50 -2 28 4 44
2 44 -4 0 -18 -50 -110 -78 -143 -38 -46 1 -23 53 30 30 32 47 41 72 41 l33 0
0 -62 c0 -35 4 -69 9 -77 17 -27 26 14 29 140 4 125 4 126 -20 132 -40 11 -54
9 -34 -6z"/>
<path d="M3452 646 c15 -11 18 -31 17 -141 0 -70 3 -130 6 -133 16 -17 25 35
25 149 0 133 -2 140 -48 139 -16 -1 -16 -2 0 -14z"/>
<path d="M3763 649 c15 -9 17 -27 17 -139 0 -122 8 -162 25 -122 5 9 10 71 13
138 4 121 4 121 -19 127 -38 11 -57 8 -36 -4z"/>
<path d="M1580 630 c20 -13 60 -13 60 0 0 6 -17 10 -37 10 -28 0 -34 -3 -23
-10z"/>
<path d="M2309 631 c21 -13 6 -55 -37 -103 -31 -35 -33 -39 -12 -28 36 18 70
51 87 84 14 27 14 31 -3 43 -10 7 -25 13 -33 13 -13 0 -14 -2 -2 -9z"/>
<path d="M1280 621 c-36 -4 -49 -8 -37 -13 9 -4 31 -5 47 -1 42 8 40 -16 -6
-67 -40 -44 -36 -50 14 -20 33 20 74 77 69 95 -4 13 -18 13 -87 6z"/>
<path d="M1965 620 c3 -6 20 -10 37 -10 38 0 34 5 -10 13 -21 4 -31 3 -27 -3z"/>
<path d="M2996 617 c8 -5 14 -23 14 -47 0 -21 3 -41 8 -43 4 -2 38 -1 76 2 68
6 69 6 71 36 1 17 5 37 9 46 6 13 -6 15 -93 15 -56 -1 -93 -4 -85 -9z m134
-37 c0 -29 -2 -30 -45 -30 -43 0 -45 1 -45 30 0 29 2 30 45 30 43 0 45 -1 45
-30z"/>
<path d="M3282 608 c13 -10 18 -31 20 -93 l3 -80 31 1 c16 1 50 11 75 23 24
12 35 19 24 16 -10 -3 -38 -9 -62 -12 l-42 -6 -3 79 -3 79 -30 3 c-27 3 -28 2
-13 -10z"/>
<path d="M3635 611 c-37 -4 -53 -9 -43 -13 14 -6 18 -23 20 -85 l3 -78 30 -2
c17 -2 48 6 70 17 36 18 37 20 10 14 -16 -3 -40 -8 -52 -11 -21 -5 -23 -2 -23
36 0 40 1 41 36 41 22 0 33 4 29 11 -4 6 -19 7 -36 4 -27 -6 -29 -5 -29 24 0
30 2 31 41 31 24 0 38 4 34 10 -3 6 -12 9 -18 8 -7 -1 -39 -4 -72 -7z"/>
<path d="M1590 600 c-76 -8 -62 -12 30 -10 36 1 69 6 75 11 10 10 1 10 -105
-1z"/>
<path d="M2000 580 c-14 -4 -36 -6 -50 -4 -24 3 -24 3 3 -8 15 -7 27 -18 27
-25 0 -18 -28 -72 -49 -97 -15 -18 -15 -18 6 -7 29 15 69 69 77 104 5 19 13
27 29 27 18 0 19 2 7 10 -17 11 -16 11 -50 0z"/>
<path d="M1566 565 c-19 -20 -20 -26 -3 -49 17 -23 85 -19 101 7 26 42 -60 79
-98 42z m69 -25 c0 -18 -6 -26 -21 -28 -23 -3 -37 18 -27 44 10 25 48 13 48
-16z"/>
<path d="M2370 525 c13 -14 27 -25 32 -25 16 0 8 29 -11 40 -35 18 -45 11 -21
-15z"/>
<path d="M2657 519 c8 -8 19 -8 40 -1 28 10 28 10 -11 11 -29 1 -37 -2 -29
-10z"/>
<path d="M2017 486 c6 -28 30 -53 40 -42 9 9 -17 58 -33 63 -7 2 -10 -6 -7
-21z"/>
<path d="M3090 498 c-52 -5 -108 -6 -125 -3 -29 4 -30 4 -6 -9 12 -7 34 -11
46 -8 22 4 24 0 27 -42 4 -60 22 -60 28 1 5 43 8 48 33 51 26 3 27 2 27 -45 0
-48 13 -83 23 -66 3 5 9 33 13 62 l7 52 35 -3 c22 -2 37 2 40 10 4 14 -6 14
-148 0z"/>
<path d="M1331 477 c-54 -27 -53 -68 3 -95 21 -10 34 -11 61 -2 57 19 59 80 3
99 -38 13 -38 13 -67 -2z m61 -14 c33 -30 16 -73 -29 -73 -33 0 -49 35 -28 66
18 28 32 30 57 7z"/>
<path d="M967 462 c6 -4 13 -21 15 -37 l3 -30 83 -3 c45 -2 82 1 82 6 0 14
-35 21 -51 11 -8 -5 -29 -9 -46 -9 -31 0 -33 2 -33 35 0 33 -2 35 -32 35 -18
0 -28 -4 -21 -8z"/>
<path d="M1598 464 c6 -3 12 -21 12 -40 l0 -34 85 0 c47 0 85 4 85 9 0 12 -49
20 -56 10 -3 -5 -20 -9 -39 -9 -31 0 -34 3 -37 33 -3 28 -7 32 -33 34 -16 1
-24 0 -17 -3z"/>
</g>
</svg>
